<svg xmlns="http://www.w3.org/2000/svg" xmlns:xlink="http://www.w3.org/1999/xlink" width="300" zoomAndPan="magnify" viewBox="0 0 224.87999 37.5" height="50" preserveAspectRatio="xMidYMid meet" version="1.0"><defs><g/><clipPath id="31ab7cca32"><path d="M 1.421875 0 L 223.339844 0 L 223.339844 37.007812 L 1.421875 37.007812 Z M 1.421875 0 " clip-rule="nonzero"/></clipPath><clipPath id="eda4bb6915"><path d="M 122 8 L 155.03125 8 L 155.03125 27 L 122 27 Z M 122 8 " clip-rule="nonzero"/></clipPath><clipPath id="1f43b14d16"><path d="M 117.285156 5.722656 L 142 5.722656 L 142 33.105469 L 117.285156 33.105469 Z M 117.285156 5.722656 " clip-rule="nonzero"/></clipPath><clipPath id="887c96e2f1"><path d="M 121.074219 6.039062 L 147.453125 6.039062 L 147.453125 33.089844 L 121.074219 33.089844 Z M 121.074219 6.039062 " clip-rule="nonzero"/></clipPath></defs><g clip-path="url(#31ab7cca32)"><path fill="#ffffff" d="M 1.421875 0 L 223.460938 0 L 223.460938 44.40625 L 1.421875 44.40625 Z M 1.421875 0 " fill-opacity="1" fill-rule="nonzero"/><path fill="#ffffff" d="M 1.421875 0 L 223.460938 0 L 223.460938 37.007812 L 1.421875 37.007812 Z M 1.421875 0 " fill-opacity="1" fill-rule="nonzero"/><path fill="#000000" d="M 1.421875 0 L 223.460938 0 L 223.460938 37.007812 L 1.421875 37.007812 Z M 1.421875 0 " fill-opacity="1" fill-rule="nonzero"/></g><g fill="#ffffff" fill-opacity="1"><g transform="translate(4.124851, 32.846454)"><g><path d="M 5.859375 -18.113281 L 5.859375 -0.320312 C 5.859375 -0.175781 6.003906 0 6.25 0 L 10.832031 0 C 11.082031 0 11.261719 -0.175781 11.261719 -0.320312 L 11.261719 -18.113281 Z M 0.390625 -23.550781 L 16.695312 -23.550781 C 16.941406 -23.550781 17.085938 -23.691406 17.085938 -23.871094 L 17.085938 -28.097656 C 17.085938 -28.238281 16.941406 -28.414062 16.695312 -28.414062 L 0.390625 -28.414062 C 0.175781 -28.414062 0 -28.238281 0 -28.097656 L 0 -23.871094 C 0 -23.691406 0.175781 -23.550781 0.390625 -23.550781 Z M 0.390625 -23.550781 "/></g></g></g><g fill="#ffffff" fill-opacity="1"><g transform="translate(22.061153, 32.846454)"><g><path d="M 5.433594 -16.089844 L 5.433594 -28.097656 C 5.433594 -28.238281 5.292969 -28.414062 5.042969 -28.414062 L 0.390625 -28.414062 C 0.175781 -28.414062 0 -28.238281 0 -28.097656 L 0 -16.089844 Z M 21.242188 -28.414062 L 16.585938 -28.414062 C 16.375 -28.414062 16.195312 -28.238281 16.195312 -28.097656 L 16.195312 -10.621094 L 5.433594 -10.621094 L 5.433594 -10.65625 L 0 -10.65625 L 0 -0.320312 C 0 -0.175781 0.175781 0 0.390625 0 L 5.042969 0 C 5.292969 0 5.433594 -0.175781 5.433594 -0.320312 L 5.433594 -5.328125 L 16.195312 -5.328125 L 16.195312 -0.320312 C 16.195312 -0.175781 16.375 0 16.585938 0 L 21.242188 0 C 21.488281 0 21.632812 -0.175781 21.632812 -0.320312 L 21.632812 -28.097656 C 21.632812 -28.238281 21.488281 -28.414062 21.242188 -28.414062 Z M 21.242188 -28.414062 "/></g></g></g><g fill="#ffffff" fill-opacity="1"><g transform="translate(44.792311, 32.846454)"><g><path d="M 22.304688 -0.425781 L 11.507812 -28.203125 C 11.402344 -28.488281 10.90625 -28.488281 10.796875 -28.203125 L 0.0351562 -0.425781 C -0.0703125 -0.214844 0.0703125 0 0.390625 0 L 5.257812 0 C 5.398438 0 5.578125 -0.0703125 5.613281 -0.214844 L 11.152344 -16.054688 L 16.765625 -0.214844 C 16.800781 -0.0703125 16.980469 0 17.085938 0 L 21.988281 0 C 22.234375 0 22.414062 -0.214844 22.304688 -0.425781 Z M 22.304688 -0.425781 "/></g></g></g><g fill="#ffffff" fill-opacity="1"><g transform="translate(68.233816, 32.846454)"><g><path d="M 23.515625 -28.414062 L 18.933594 -28.414062 C 18.683594 -28.414062 18.507812 -28.238281 18.507812 -28.097656 L 18.507812 -9.589844 L 5.398438 -28.308594 C 5.363281 -28.378906 5.152344 -28.414062 5.078125 -28.414062 L 0.355469 -28.414062 C 0.175781 -28.414062 0 -28.238281 0 -28.097656 L 0 -6.820312 L 5.433594 -6.820312 L 5.433594 -18.824219 L 18.507812 -0.105469 C 18.542969 -0.0351562 18.753906 0 18.824219 0 L 23.515625 0 C 23.761719 0 23.90625 -0.175781 23.90625 -0.320312 L 23.90625 -28.097656 C 23.90625 -28.238281 23.761719 -28.414062 23.515625 -28.414062 Z M 23.515625 -28.414062 "/></g></g></g><g fill="#ffffff" fill-opacity="1"><g transform="translate(93.344638, 32.846454)"><g><path d="M 5.433594 -16.089844 L 5.433594 -28.097656 C 5.433594 -28.238281 5.292969 -28.414062 5.042969 -28.414062 L 0.390625 -28.414062 C 0.175781 -28.414062 0 -28.238281 0 -28.097656 L 0 -16.089844 Z M 21.242188 -28.414062 L 16.585938 -28.414062 C 16.375 -28.414062 16.195312 -28.238281 16.195312 -28.097656 L 16.195312 -10.621094 L 5.433594 -10.621094 L 5.433594 -10.65625 L 0 -10.65625 L 0 -0.320312 C 0 -0.175781 0.175781 0 0.390625 0 L 5.042969 0 C 5.292969 0 5.433594 -0.175781 5.433594 -0.320312 L 5.433594 -5.328125 L 16.195312 -5.328125 L 16.195312 -0.320312 C 16.195312 -0.175781 16.375 0 16.585938 0 L 21.242188 0 C 21.488281 0 21.632812 -0.175781 21.632812 -0.320312 L 21.632812 -28.097656 C 21.632812 -28.238281 21.488281 -28.414062 21.242188 -28.414062 Z M 21.242188 -28.414062 "/></g></g></g><g fill="#ffffff" fill-opacity="1"><g transform="translate(116.06707, 32.846454)"><g/></g></g><g fill="#ffffff" fill-opacity="1"><g transform="translate(124.946427, 32.846454)"><g/></g></g><g fill="#ffffff" fill-opacity="1"><g transform="translate(133.825759, 32.846454)"><g><path d="M 5.859375 -18.113281 L 5.859375 -0.320312 C 5.859375 -0.175781 6.003906 0 6.25 0 L 10.832031 0 C 11.082031 0 11.261719 -0.175781 11.261719 -0.320312 L 11.261719 -18.113281 Z M 0.390625 -23.550781 L 16.695312 -23.550781 C 16.941406 -23.550781 17.085938 -23.691406 17.085938 -23.871094 L 17.085938 -28.097656 C 17.085938 -28.238281 16.941406 -28.414062 16.695312 -28.414062 L 0.390625 -28.414062 C 0.175781 -28.414062 0 -28.238281 0 -28.097656 L 0 -23.871094 C 0 -23.691406 0.175781 -23.550781 0.390625 -23.550781 Z M 0.390625 -23.550781 "/></g></g></g><g fill="#ffffff" fill-opacity="1"><g transform="translate(151.762061, 32.846454)"><g><path d="M 19.394531 -0.460938 C 17.617188 -4.40625 15.699219 -8.3125 13.925781 -12.324219 C 16.765625 -13.355469 19.144531 -15.628906 19.144531 -19.960938 C 19.144531 -28.34375 11.152344 -28.414062 9.554688 -28.414062 L 0.355469 -28.414062 C 0.175781 -28.414062 0 -28.238281 0 -28.097656 L 0 -23.265625 L 9.554688 -23.265625 C 10.40625 -23.265625 13.746094 -23.089844 13.746094 -19.960938 C 13.746094 -16.835938 10.726562 -16.695312 9.554688 -16.695312 L 0 -16.695312 L 0 -0.320312 C 0 -0.175781 0.175781 0 0.355469 0 L 5.007812 0 C 5.222656 0 5.398438 -0.175781 5.398438 -0.320312 L 5.398438 -11.472656 L 8.453125 -11.472656 L 13.640625 -0.214844 C 13.675781 -0.105469 13.886719 0 13.996094 0 L 19.074219 0 C 19.359375 0 19.5 -0.214844 19.394531 -0.460938 Z M 19.394531 -0.460938 "/></g></g></g><g fill="#ffffff" fill-opacity="1"><g transform="translate(172.184584, 32.846454)"><g><path d="M 22.304688 -0.425781 L 11.507812 -28.203125 C 11.402344 -28.488281 10.90625 -28.488281 10.796875 -28.203125 L 0.0351562 -0.425781 C -0.0703125 -0.214844 0.0703125 0 0.390625 0 L 5.257812 0 C 5.398438 0 5.578125 -0.0703125 5.613281 -0.214844 L 11.152344 -16.054688 L 16.765625 -0.214844 C 16.800781 -0.0703125 16.980469 0 17.085938 0 L 21.988281 0 C 22.234375 0 22.414062 -0.214844 22.304688 -0.425781 Z M 22.304688 -0.425781 "/></g></g></g><g fill="#ffffff" fill-opacity="1"><g transform="translate(195.626088, 32.846454)"><g><path d="M 23.515625 -28.414062 L 18.933594 -28.414062 C 18.683594 -28.414062 18.507812 -28.238281 18.507812 -28.097656 L 18.507812 -9.589844 L 5.398438 -28.308594 C 5.363281 -28.378906 5.152344 -28.414062 5.078125 -28.414062 L 0.355469 -28.414062 C 0.175781 -28.414062 0 -28.238281 0 -28.097656 L 0 -6.820312 L 5.433594 -6.820312 L 5.433594 -18.824219 L 18.507812 -0.105469 C 18.542969 -0.0351562 18.753906 0 18.824219 0 L 23.515625 0 C 23.761719 0 23.90625 -0.175781 23.90625 -0.320312 L 23.90625 -28.097656 C 23.90625 -28.238281 23.761719 -28.414062 23.515625 -28.414062 Z M 23.515625 -28.414062 "/></g></g></g><g clip-path="url(#eda4bb6915)"><path fill="#8ac0c8" d="M 129.246094 8.625 L 126.855469 8.625 L 126.855469 9.554688 L 129.246094 9.554688 Z M 130.046875 10.726562 L 122.265625 10.726562 L 122.265625 11.652344 L 130.046875 11.652344 Z M 140.652344 12.824219 L 136.902344 12.824219 L 136.902344 13.753906 L 140.652344 13.753906 Z M 127.242188 14.925781 L 122.265625 14.925781 L 122.265625 15.851562 L 127.242188 15.851562 Z M 133.054688 17.023438 L 122.265625 17.023438 L 122.265625 17.953125 L 133.054688 17.953125 Z M 140.011719 17.953125 L 150.800781 17.953125 L 150.800781 17.023438 L 140.011719 17.023438 Z M 147.964844 23.324219 L 147.964844 24.25 L 155.03125 24.25 L 155.03125 23.324219 Z M 130.273438 24.25 L 147.027344 24.25 L 147.027344 23.324219 L 130.273438 23.324219 Z M 122.265625 26.351562 L 129.179688 26.351562 L 129.179688 25.421875 L 122.265625 25.421875 L 122.265625 26.351562 " fill-opacity="1" fill-rule="nonzero"/></g><path fill="#18bd9c" d="M 143.917969 10.726562 L 136.136719 10.726562 L 136.136719 11.652344 L 143.917969 11.652344 Z M 135.960938 12.824219 L 122.265625 12.824219 L 122.265625 13.753906 L 135.960938 13.753906 Z M 133.839844 20.050781 L 143.253906 20.050781 L 143.253906 19.125 L 133.839844 19.125 Z M 129.332031 23.324219 L 122.265625 23.324219 L 122.265625 24.25 L 129.332031 24.25 Z M 142.5625 25.421875 L 142.5625 26.351562 L 144.582031 26.351562 L 144.582031 25.421875 Z M 126.601562 28.449219 L 142.640625 28.449219 L 142.640625 27.523438 L 126.601562 27.523438 L 126.601562 28.449219 " fill-opacity="1" fill-rule="nonzero"/><g clip-path="url(#1f43b14d16)"><path fill="#fcde82" d="M 117.285156 7.453125 L 118.222656 7.453125 L 118.222656 6.527344 L 117.285156 6.527344 Z M 117.285156 9.554688 L 118.222656 9.554688 L 118.222656 8.625 L 117.285156 8.625 Z M 135.199219 10.726562 L 130.988281 10.726562 L 130.988281 11.652344 L 135.199219 11.652344 Z M 117.285156 11.652344 L 118.222656 11.652344 L 118.222656 10.726562 L 117.285156 10.726562 Z M 117.285156 13.753906 L 118.222656 13.753906 L 118.222656 12.824219 L 117.285156 12.824219 Z M 138.511719 14.925781 L 128.183594 14.925781 L 128.183594 15.851562 L 138.511719 15.851562 Z M 117.285156 15.851562 L 118.222656 15.851562 L 118.222656 14.925781 L 117.285156 14.925781 Z M 117.285156 17.953125 L 118.222656 17.953125 L 118.222656 17.023438 L 117.285156 17.023438 Z M 132.902344 19.125 L 122.265625 19.125 L 122.265625 20.050781 L 132.902344 20.050781 Z M 117.285156 20.050781 L 118.222656 20.050781 L 118.222656 19.125 L 117.285156 19.125 Z M 117.285156 22.152344 L 118.222656 22.152344 L 118.222656 21.222656 L 117.285156 21.222656 Z M 117.285156 24.25 L 118.222656 24.25 L 118.222656 23.324219 L 117.285156 23.324219 Z M 130.121094 25.421875 L 130.121094 26.351562 L 141.621094 26.351562 L 141.621094 25.421875 Z M 117.285156 26.351562 L 118.222656 26.351562 L 118.222656 25.421875 L 117.285156 25.421875 Z M 122.265625 28.449219 L 125.664062 28.449219 L 125.664062 27.523438 L 122.265625 27.523438 Z M 117.285156 28.449219 L 118.222656 28.449219 L 118.222656 27.523438 L 117.285156 27.523438 Z M 117.285156 30.550781 L 118.222656 30.550781 L 118.222656 29.621094 L 117.285156 29.621094 Z M 119.851562 33.015625 L 120.308594 33.015625 L 120.308594 5.738281 L 119.851562 5.738281 L 119.851562 33.015625 " fill-opacity="1" fill-rule="nonzero"/></g><g clip-path="url(#887c96e2f1)"><path fill="#f49c10" d="M 125.917969 8.625 L 121.140625 8.625 L 121.140625 9.554688 L 125.917969 9.554688 Z M 141.59375 12.824219 L 141.59375 13.753906 L 147.433594 13.753906 L 147.433594 12.824219 Z M 133.996094 17.953125 L 139.074219 17.953125 L 139.074219 17.023438 L 133.996094 17.023438 Z M 121.140625 22.152344 L 126.375 22.152344 L 126.375 21.222656 L 121.140625 21.222656 Z M 124.488281 29.621094 L 121.140625 29.621094 L 121.140625 30.550781 L 124.488281 30.550781 Z M 124.113281 7.878906 C 124.152344 7.878906 124.191406 7.863281 124.21875 7.835938 L 125.625 6.449219 C 125.683594 6.390625 125.683594 6.292969 125.625 6.234375 C 125.566406 6.175781 125.46875 6.175781 125.410156 6.234375 L 124.003906 7.621094 C 123.945312 7.679688 123.945312 7.777344 124.003906 7.835938 C 124.035156 7.863281 124.074219 7.878906 124.113281 7.878906 Z M 122.945312 7.917969 C 122.976562 7.949219 123.015625 7.960938 123.054688 7.960938 C 123.09375 7.960938 123.132812 7.949219 123.160156 7.917969 C 123.222656 7.859375 123.222656 7.761719 123.160156 7.703125 L 122.484375 7.035156 L 123.160156 6.367188 C 123.222656 6.304688 123.222656 6.210938 123.160156 6.152344 C 123.101562 6.09375 123.003906 6.09375 122.945312 6.152344 L 122.160156 6.929688 C 122.097656 6.988281 122.097656 7.082031 122.160156 7.140625 Z M 126.726562 6.152344 C 126.667969 6.09375 126.570312 6.09375 126.511719 6.152344 C 126.449219 6.210938 126.449219 6.308594 126.511719 6.367188 L 126.511719 6.363281 L 127.1875 7.035156 L 126.511719 7.703125 C 126.449219 7.761719 126.449219 7.859375 126.511719 7.917969 C 126.539062 7.949219 126.578125 7.960938 126.617188 7.960938 C 126.65625 7.960938 126.695312 7.949219 126.726562 7.917969 L 127.511719 7.140625 C 127.542969 7.113281 127.558594 7.074219 127.558594 7.035156 C 127.558594 6.992188 127.542969 6.957031 127.511719 6.925781 Z M 126.726562 31.28125 C 126.667969 31.222656 126.570312 31.222656 126.511719 31.28125 C 126.449219 31.339844 126.449219 31.4375 126.511719 31.496094 L 127.1875 32.164062 L 126.511719 32.832031 C 126.449219 32.890625 126.449219 32.988281 126.511719 33.046875 C 126.539062 33.074219 126.578125 33.089844 126.617188 33.089844 C 126.65625 33.089844 126.695312 33.074219 126.726562 33.046875 L 127.511719 32.269531 C 127.542969 32.242188 127.558594 32.203125 127.558594 32.164062 C 127.558594 32.125 127.542969 32.085938 127.511719 32.058594 Z M 123.160156 31.28125 C 123.101562 31.222656 123.003906 31.222656 122.945312 31.28125 L 122.160156 32.058594 C 122.097656 32.117188 122.097656 32.210938 122.160156 32.269531 L 122.945312 33.046875 C 122.976562 33.074219 123.015625 33.089844 123.054688 33.089844 C 123.09375 33.089844 123.132812 33.074219 123.160156 33.046875 C 123.222656 32.988281 123.222656 32.890625 123.160156 32.832031 L 122.484375 32.164062 L 123.160156 31.496094 C 123.222656 31.433594 123.222656 31.339844 123.160156 31.28125 Z M 125.410156 31.363281 L 124.003906 32.75 C 123.945312 32.808594 123.945312 32.90625 124.003906 32.964844 C 124.035156 32.992188 124.074219 33.007812 124.113281 33.007812 C 124.152344 33.007812 124.191406 32.992188 124.21875 32.964844 L 125.625 31.578125 C 125.683594 31.519531 125.683594 31.421875 125.625 31.363281 C 125.566406 31.304688 125.46875 31.304688 125.410156 31.363281 " fill-opacity="1" fill-rule="nonzero"/></g></svg>